<mxfile host="app.diagrams.net" modified="2023-04-18T13:14:41.051Z" agent="Mozilla/5.0 (Windows NT 10.0; Win64; x64) AppleWebKit/537.36 (KHTML, like Gecko) Chrome/112.0.0.0 Safari/537.36" etag="rwVkbHVzA1RY-FsmqB-g" version="21.1.8" type="device">
  <diagram name="Страница 1" id="592omqs6vf4V4SqZEaFu">
    <mxGraphModel dx="998" dy="548" grid="1" gridSize="10" guides="1" tooltips="1" connect="1" arrows="1" fold="1" page="1" pageScale="1" pageWidth="827" pageHeight="1169" math="0" shadow="0">
      <root>
        <mxCell id="0" />
        <mxCell id="1" parent="0" />
        <mxCell id="2LjDrPBOcppLivq5cnCg-1" value="Cell" style="swimlane;fontStyle=1;align=center;verticalAlign=top;childLayout=stackLayout;horizontal=1;startSize=26;horizontalStack=0;resizeParent=1;resizeParentMax=0;resizeLast=0;collapsible=1;marginBottom=0;whiteSpace=wrap;html=1;" vertex="1" parent="1">
          <mxGeometry x="410" y="710" width="190" height="120" as="geometry" />
        </mxCell>
        <mxCell id="2LjDrPBOcppLivq5cnCg-2" value="&lt;u&gt;+ PRICE_PER_MOVE: int = 5&lt;/u&gt;&lt;br&gt;+ unit: MarketUnit" style="text;strokeColor=none;fillColor=none;align=left;verticalAlign=top;spacingLeft=4;spacingRight=4;overflow=hidden;rotatable=0;points=[[0,0.5],[1,0.5]];portConstraint=eastwest;whiteSpace=wrap;html=1;" vertex="1" parent="2LjDrPBOcppLivq5cnCg-1">
          <mxGeometry y="26" width="190" height="44" as="geometry" />
        </mxCell>
        <mxCell id="2LjDrPBOcppLivq5cnCg-3" value="" style="line;strokeWidth=1;fillColor=none;align=left;verticalAlign=middle;spacingTop=-1;spacingLeft=3;spacingRight=3;rotatable=0;labelPosition=right;points=[];portConstraint=eastwest;strokeColor=inherit;" vertex="1" parent="2LjDrPBOcppLivq5cnCg-1">
          <mxGeometry y="70" width="190" height="8" as="geometry" />
        </mxCell>
        <mxCell id="2LjDrPBOcppLivq5cnCg-4" value="+ unit():&lt;br&gt;+ unit(&lt;b&gt;in&lt;/b&gt; value: ):&amp;nbsp;" style="text;strokeColor=none;fillColor=none;align=left;verticalAlign=top;spacingLeft=4;spacingRight=4;overflow=hidden;rotatable=0;points=[[0,0.5],[1,0.5]];portConstraint=eastwest;whiteSpace=wrap;html=1;" vertex="1" parent="2LjDrPBOcppLivq5cnCg-1">
          <mxGeometry y="78" width="190" height="42" as="geometry" />
        </mxCell>
        <mxCell id="2LjDrPBOcppLivq5cnCg-5" value="MapUnit" style="swimlane;fontStyle=1;align=center;verticalAlign=top;childLayout=stackLayout;horizontal=1;startSize=26;horizontalStack=0;resizeParent=1;resizeParentMax=0;resizeLast=0;collapsible=1;marginBottom=0;whiteSpace=wrap;html=1;" vertex="1" parent="1">
          <mxGeometry x="320" y="160" width="390" height="180" as="geometry" />
        </mxCell>
        <mxCell id="2LjDrPBOcppLivq5cnCg-6" value="&lt;u&gt;+existing_units: namedtuple(companies: list, products: list, clients: list)&lt;br&gt;+ RADIUS_VIEW: int = 1&lt;/u&gt;&lt;br&gt;+ row: int&lt;br&gt;+ col: int&lt;br&gt;+ resource: int" style="text;strokeColor=none;fillColor=none;align=left;verticalAlign=top;spacingLeft=4;spacingRight=4;overflow=hidden;rotatable=0;points=[[0,0.5],[1,0.5]];portConstraint=eastwest;whiteSpace=wrap;html=1;" vertex="1" parent="2LjDrPBOcppLivq5cnCg-5">
          <mxGeometry y="26" width="390" height="94" as="geometry" />
        </mxCell>
        <mxCell id="2LjDrPBOcppLivq5cnCg-7" value="" style="line;strokeWidth=1;fillColor=none;align=left;verticalAlign=middle;spacingTop=-1;spacingLeft=3;spacingRight=3;rotatable=0;labelPosition=right;points=[];portConstraint=eastwest;strokeColor=inherit;" vertex="1" parent="2LjDrPBOcppLivq5cnCg-5">
          <mxGeometry y="120" width="390" height="8" as="geometry" />
        </mxCell>
        <mxCell id="2LjDrPBOcppLivq5cnCg-8" value="+ drop_unit(&lt;b&gt;inout&amp;nbsp;&lt;/b&gt;the_map):&lt;br&gt;#&amp;nbsp;_get_visible_coords&lt;span style=&quot;background-color: initial;&quot;&gt;(&lt;b&gt;in&lt;/b&gt; rows: int, &lt;b&gt;in&lt;/b&gt; cols: int): list&lt;/span&gt;&lt;br&gt;#_get_free_coords(&lt;b&gt;in&lt;/b&gt; the_map: list, &lt;b&gt;in&lt;/b&gt;&lt;span style=&quot;background-color: initial;&quot;&gt; possible_coords: list): list&amp;nbsp;&lt;/span&gt;" style="text;strokeColor=none;fillColor=none;align=left;verticalAlign=top;spacingLeft=4;spacingRight=4;overflow=hidden;rotatable=0;points=[[0,0.5],[1,0.5]];portConstraint=eastwest;whiteSpace=wrap;html=1;" vertex="1" parent="2LjDrPBOcppLivq5cnCg-5">
          <mxGeometry y="128" width="390" height="52" as="geometry" />
        </mxCell>
        <mxCell id="2LjDrPBOcppLivq5cnCg-10" value="Product" style="swimlane;fontStyle=1;align=center;verticalAlign=top;childLayout=stackLayout;horizontal=1;startSize=26;horizontalStack=0;resizeParent=1;resizeParentMax=0;resizeLast=0;collapsible=1;marginBottom=0;whiteSpace=wrap;html=1;" vertex="1" parent="1">
          <mxGeometry x="360" y="400" width="280" height="170" as="geometry" />
        </mxCell>
        <mxCell id="2LjDrPBOcppLivq5cnCg-11" value="+ quality: int&lt;br&gt;+ eco_friendly: int&lt;br&gt;+ price: int&lt;br&gt;+ parent: Company&lt;br&gt;- direction: ??&lt;br&gt;- passed_coords: list" style="text;strokeColor=none;fillColor=none;align=left;verticalAlign=top;spacingLeft=4;spacingRight=4;overflow=hidden;rotatable=0;points=[[0,0.5],[1,0.5]];portConstraint=eastwest;whiteSpace=wrap;html=1;" vertex="1" parent="2LjDrPBOcppLivq5cnCg-10">
          <mxGeometry y="26" width="280" height="94" as="geometry" />
        </mxCell>
        <mxCell id="2LjDrPBOcppLivq5cnCg-12" value="" style="line;strokeWidth=1;fillColor=none;align=left;verticalAlign=middle;spacingTop=-1;spacingLeft=3;spacingRight=3;rotatable=0;labelPosition=right;points=[];portConstraint=eastwest;strokeColor=inherit;" vertex="1" parent="2LjDrPBOcppLivq5cnCg-10">
          <mxGeometry y="120" width="280" height="8" as="geometry" />
        </mxCell>
        <mxCell id="2LjDrPBOcppLivq5cnCg-13" value="+ move&lt;span style=&quot;background-color: initial;&quot;&gt;(&lt;b&gt;inout&lt;/b&gt; the_map: list):&lt;/span&gt;" style="text;strokeColor=none;fillColor=none;align=left;verticalAlign=top;spacingLeft=4;spacingRight=4;overflow=hidden;rotatable=0;points=[[0,0.5],[1,0.5]];portConstraint=eastwest;whiteSpace=wrap;html=1;" vertex="1" parent="2LjDrPBOcppLivq5cnCg-10">
          <mxGeometry y="128" width="280" height="42" as="geometry" />
        </mxCell>
        <mxCell id="2LjDrPBOcppLivq5cnCg-14" value="Client" style="swimlane;fontStyle=1;align=center;verticalAlign=top;childLayout=stackLayout;horizontal=1;startSize=26;horizontalStack=0;resizeParent=1;resizeParentMax=0;resizeLast=0;collapsible=1;marginBottom=0;whiteSpace=wrap;html=1;" vertex="1" parent="1">
          <mxGeometry x="680" y="400" width="290" height="140" as="geometry" />
        </mxCell>
        <mxCell id="2LjDrPBOcppLivq5cnCg-15" value="???&lt;br&gt;" style="text;strokeColor=none;fillColor=none;align=left;verticalAlign=top;spacingLeft=4;spacingRight=4;overflow=hidden;rotatable=0;points=[[0,0.5],[1,0.5]];portConstraint=eastwest;whiteSpace=wrap;html=1;" vertex="1" parent="2LjDrPBOcppLivq5cnCg-14">
          <mxGeometry y="26" width="290" height="24" as="geometry" />
        </mxCell>
        <mxCell id="2LjDrPBOcppLivq5cnCg-16" value="" style="line;strokeWidth=1;fillColor=none;align=left;verticalAlign=middle;spacingTop=-1;spacingLeft=3;spacingRight=3;rotatable=0;labelPosition=right;points=[];portConstraint=eastwest;strokeColor=inherit;" vertex="1" parent="2LjDrPBOcppLivq5cnCg-14">
          <mxGeometry y="50" width="290" height="8" as="geometry" />
        </mxCell>
        <mxCell id="2LjDrPBOcppLivq5cnCg-17" value="+ buy_product(&lt;b&gt;inout&lt;/b&gt;&amp;nbsp;the_map):&lt;br&gt;+ drop_unit(&lt;b&gt;inout&lt;/b&gt; the_map):&lt;br&gt;# _get_products(&lt;b&gt;in&lt;/b&gt; the_map, &lt;b&gt;in&lt;/b&gt; possible_cells): list" style="text;strokeColor=none;fillColor=none;align=left;verticalAlign=top;spacingLeft=4;spacingRight=4;overflow=hidden;rotatable=0;points=[[0,0.5],[1,0.5]];portConstraint=eastwest;whiteSpace=wrap;html=1;" vertex="1" parent="2LjDrPBOcppLivq5cnCg-14">
          <mxGeometry y="58" width="290" height="82" as="geometry" />
        </mxCell>
        <mxCell id="2LjDrPBOcppLivq5cnCg-18" value="Company" style="swimlane;fontStyle=1;align=center;verticalAlign=top;childLayout=stackLayout;horizontal=1;startSize=26;horizontalStack=0;resizeParent=1;resizeParentMax=0;resizeLast=0;collapsible=1;marginBottom=0;whiteSpace=wrap;html=1;" vertex="1" parent="1">
          <mxGeometry x="120" y="400" width="200" height="160" as="geometry" />
        </mxCell>
        <mxCell id="2LjDrPBOcppLivq5cnCg-19" value="???" style="text;strokeColor=none;fillColor=none;align=left;verticalAlign=top;spacingLeft=4;spacingRight=4;overflow=hidden;rotatable=0;points=[[0,0.5],[1,0.5]];portConstraint=eastwest;whiteSpace=wrap;html=1;" vertex="1" parent="2LjDrPBOcppLivq5cnCg-18">
          <mxGeometry y="26" width="200" height="24" as="geometry" />
        </mxCell>
        <mxCell id="2LjDrPBOcppLivq5cnCg-20" value="" style="line;strokeWidth=1;fillColor=none;align=left;verticalAlign=middle;spacingTop=-1;spacingLeft=3;spacingRight=3;rotatable=0;labelPosition=right;points=[];portConstraint=eastwest;strokeColor=inherit;" vertex="1" parent="2LjDrPBOcppLivq5cnCg-18">
          <mxGeometry y="50" width="200" height="8" as="geometry" />
        </mxCell>
        <mxCell id="2LjDrPBOcppLivq5cnCg-21" value="+ produce_product(the_map):&lt;br&gt;+ drop_unit(&lt;b&gt;inout&lt;/b&gt;&amp;nbsp;the_map):&lt;br&gt;# _drop_products(&lt;b&gt;inout&lt;/b&gt; the_map):&lt;span style=&quot;background-color: initial;&quot;&gt;&lt;br&gt;&lt;/span&gt;" style="text;strokeColor=none;fillColor=none;align=left;verticalAlign=top;spacingLeft=4;spacingRight=4;overflow=hidden;rotatable=0;points=[[0,0.5],[1,0.5]];portConstraint=eastwest;whiteSpace=wrap;html=1;" vertex="1" parent="2LjDrPBOcppLivq5cnCg-18">
          <mxGeometry y="58" width="200" height="102" as="geometry" />
        </mxCell>
        <mxCell id="2LjDrPBOcppLivq5cnCg-22" value="" style="endArrow=block;endSize=16;endFill=0;html=1;rounded=0;exitX=0.5;exitY=0;exitDx=0;exitDy=0;edgeStyle=orthogonalEdgeStyle;" edge="1" parent="1" source="2LjDrPBOcppLivq5cnCg-18">
          <mxGeometry width="160" relative="1" as="geometry">
            <mxPoint x="460" y="460" as="sourcePoint" />
            <mxPoint x="500" y="340" as="targetPoint" />
          </mxGeometry>
        </mxCell>
        <mxCell id="2LjDrPBOcppLivq5cnCg-23" value="" style="endArrow=block;endSize=16;endFill=0;html=1;rounded=0;exitX=0.5;exitY=0;exitDx=0;exitDy=0;edgeStyle=orthogonalEdgeStyle;" edge="1" parent="1" source="2LjDrPBOcppLivq5cnCg-14">
          <mxGeometry width="160" relative="1" as="geometry">
            <mxPoint x="530" y="380" as="sourcePoint" />
            <mxPoint x="500" y="340" as="targetPoint" />
            <Array as="points">
              <mxPoint x="745" y="370" />
              <mxPoint x="500" y="370" />
            </Array>
          </mxGeometry>
        </mxCell>
        <mxCell id="2LjDrPBOcppLivq5cnCg-24" value="" style="endArrow=block;endSize=16;endFill=0;html=1;rounded=0;exitX=0.5;exitY=0;exitDx=0;exitDy=0;" edge="1" parent="1" source="2LjDrPBOcppLivq5cnCg-10">
          <mxGeometry width="160" relative="1" as="geometry">
            <mxPoint x="530" y="380" as="sourcePoint" />
            <mxPoint x="500" y="340" as="targetPoint" />
          </mxGeometry>
        </mxCell>
      </root>
    </mxGraphModel>
  </diagram>
</mxfile>
